<svg id="Capa_1" data-name="Capa 1" xmlns="http://www.w3.org/2000/svg" viewBox="0 0 157.6763 92.2381"><title>facturado</title><g style="isolation:isolate"><path d="M165.4268,60.124V58.9648a1.72,1.72,0,0,1,.4013-1.0576,4.8222,4.8222,0,0,1,.9707-.9384l1.1621-.8614a4.9191,4.9191,0,0,0,.9991-.9394,1.6916,1.6916,0,0,0,.413-1.0586,1.48,1.48,0,0,0-.3769-1.0049,1.3632,1.3632,0,0,0-1.083-.4307,1.4086,1.4086,0,0,0-.9766.3389,1.2479,1.2479,0,0,0-.3769.9785.3571.3571,0,0,1-.1426.2783.57.57,0,0,1-.3818.1211q-.4527,0-.4532-.584a1.8367,1.8367,0,0,1,.6758-1.4668,2.6787,2.6787,0,0,1,3.4111.084,2.1567,2.1567,0,0,1,.7061,1.6494,2.4083,2.4083,0,0,1-.293,1.1485,3.29,3.29,0,0,1-.7285.9336q-.4365.3824-.95.7656l-.958.6816a3.5075,3.5075,0,0,0-.7236.6582,1.1249,1.1249,0,0,0-.293.7061v.6094H170.1a.3035.3035,0,0,1,.2451.1308.5142.5142,0,0,1,.1016.3223.5211.5211,0,0,1-.1016.3164.2939.2939,0,0,1-.2422.1367h-4.2246a.5337.5337,0,0,1-.3027-.1015A.3025.3025,0,0,1,165.4268,60.124Z" transform="translate(-29.8774 -13.8)" style="fill:#606060"/><path d="M171.126,58.5273a.5118.5118,0,0,1,.1006-.37.535.535,0,0,1,.3642-.0947.6355.6355,0,0,1,.3994.0947.3714.3714,0,0,1,.1133.2989,1.1168,1.1168,0,0,0,.3867.8222,1.6488,1.6488,0,0,0,1.1748.3692,1.4334,1.4334,0,0,0,1.5977-1.6446v-.2265q0-1.4547-1.5977-1.4541-.3456,0-.3457-.418t.3457-.417a1.514,1.514,0,0,0,1.0371-.3086,1.4555,1.4555,0,0,0,.3458-1.1162q0-1.3887-1.335-1.3887a1.4336,1.4336,0,0,0-1.0791.3369,1.13,1.13,0,0,0-.3164.7989c0,.292-.1582.4375-.4766.4375a.4166.4166,0,0,1-.5244-.5127,1.8171,1.8171,0,0,1,.1133-.6133,2.2213,2.2213,0,0,1,.3633-.6318,1.7784,1.7784,0,0,1,.7568-.5186,3.1718,3.1718,0,0,1,1.1865-.2031q2.2779,0,2.2774,2.1172a2.8131,2.8131,0,0,1-.2627,1.2714,1.49,1.49,0,0,1-.7031.7247,1.8587,1.8587,0,0,1,1.2158,1.8955v.2265a2.4215,2.4215,0,0,1-.7149,1.9307,2.7724,2.7724,0,0,1-1.8838.62,2.6212,2.6212,0,0,1-1.8838-.626A1.8962,1.8962,0,0,1,171.126,58.5273Z" transform="translate(-29.8774 -13.8)" style="fill:#606060"/><path d="M177.4561,60.125V51.7676a.29.29,0,0,1,.1367-.25.6046.6046,0,0,1,.3515-.0957.6289.6289,0,0,1,.3575.0957.2882.2882,0,0,1,.1435.25v5.5791l2.7178-2.4551a.3523.3523,0,0,1,.2148-.084.5054.5054,0,0,1,.34.1436.4215.4215,0,0,1,.1611.3213.3054.3054,0,0,1-.1074.2382l-1.6572,1.4668,1.98,2.8731a.3468.3468,0,0,1,.06.1787.4586.4586,0,0,1-.18.34.5489.5489,0,0,1-.3691.1612.3221.3221,0,0,1-.2744-.1553l-1.8955-2.7773-.9893.8818V60.125a.3137.3137,0,0,1-.1494.2441.6061.6061,0,0,1-.6973.0059A.31.31,0,0,1,177.4561,60.125Z" transform="translate(-29.8774 -13.8)" style="fill:#606060"/><path d="M182.5225,61.6113a1.3919,1.3919,0,0,1,.9658-1.3037.81.81,0,0,1-.584-.8017.9975.9975,0,0,1,.5723-.8829,1.8266,1.8266,0,0,1-.68-1.5029v-.3926a1.8569,1.8569,0,0,1,.584-1.4189,2.1585,2.1585,0,0,1,1.538-.5488,2.2432,2.2432,0,0,1,1.3946.4433q.3588-.7529.81-.7529a.4341.4341,0,0,1,.3106.1133.3465.3465,0,0,1,.1191.2558c0,.1045-.0674.1836-.2031.2383a1.0845,1.0845,0,0,0-.6436.5371,1.706,1.706,0,0,1,.37,1.1328V57.12a1.8464,1.8464,0,0,1-.6083,1.419,2.1957,2.1957,0,0,1-1.55.5605,2.1055,2.1055,0,0,1-.8818-.1787c-.1992.1172-.2978.249-.2978.3965a.38.38,0,0,0,.2744.3447,2.4151,2.4151,0,0,0,.6787.1738c.2676.0342.5625.0723.8818.1123a4.6808,4.6808,0,0,1,.8838.1954,1.4286,1.4286,0,0,1,.6787.4736,1.3323,1.3323,0,0,1,.2735.8633,1.45,1.45,0,0,1-.6729,1.2871,3.1135,3.1135,0,0,1-1.7471.4453,3.3051,3.3051,0,0,1-1.77-.4336A1.32,1.32,0,0,1,182.5225,61.6113Zm.9423-.1093a.8666.8666,0,0,0,.4112.749,1.923,1.923,0,0,0,1.1025.2822,1.8207,1.8207,0,0,0,1.0674-.2822.88.88,0,0,0,.3994-.752.8142.8142,0,0,0-.0654-.3359.5748.5748,0,0,0-.209-.2412,2.1158,2.1158,0,0,0-.2861-.1621,1.3257,1.3257,0,0,0-.3731-.0967c-.1543-.02-.2783-.0361-.3721-.0488s-.2255-.0293-.3906-.0508-.2793-.0371-.3428-.0449Q183.4644,60.8291,183.4648,61.502Zm.2979-4.3936a1.4041,1.4041,0,0,0,.3154.9424,1.1824,1.1824,0,0,0,1.711.0058,1.3591,1.3591,0,0,0,.3222-.9365v-.3926a1.3453,1.3453,0,0,0-.3222-.9179,1.1882,1.1882,0,0,0-1.7168-.0069,1.38,1.38,0,0,0-.31.9248Z" transform="translate(-29.8774 -13.8)" style="fill:#606060"/></g><path d="M72.2,102.5H68.4a.6452.6452,0,0,1-.6-.6v-.2a.6452.6452,0,0,1,.6-.6h3.8a.6452.6452,0,0,1,.6.6v.2A.5764.5764,0,0,1,72.2,102.5Z" transform="translate(-29.8774 -13.8)" style="fill:#616161"/><path d="M71,99.9v3.8a.6452.6452,0,0,1-.6.6h-.2a.6452.6452,0,0,1-.6-.6V99.9a.6452.6452,0,0,1,.6-.6h.2A.6452.6452,0,0,1,71,99.9Z" transform="translate(-29.8774 -13.8)" style="fill:#616161"/><path d="M95,102.5H91.2a.6452.6452,0,0,1-.6-.6v-.2a.6452.6452,0,0,1,.6-.6H95a.6452.6452,0,0,1,.6.6v.2A.5764.5764,0,0,1,95,102.5Z" transform="translate(-29.8774 -13.8)" style="fill:#616161"/><path d="M93.7,99.9v3.8a.6452.6452,0,0,1-.6.6H93a.6452.6452,0,0,1-.6-.6V99.9a.6452.6452,0,0,1,.6-.6h.2A.56.56,0,0,1,93.7,99.9Z" transform="translate(-29.8774 -13.8)" style="fill:#616161"/><path d="M115.3,102.8h-3.8a.6452.6452,0,0,1-.6-.6V102a.6452.6452,0,0,1,.6-.6h3.8a.6452.6452,0,0,1,.6.6v.2A.6452.6452,0,0,1,115.3,102.8Z" transform="translate(-29.8774 -13.8)" style="fill:#616161"/><path d="M115.3,101h-3.8a.6452.6452,0,0,1-.6-.6v-.2a.6452.6452,0,0,1,.6-.6h3.8a.6452.6452,0,0,1,.6.6v.2A.6452.6452,0,0,1,115.3,101Z" transform="translate(-29.8774 -13.8)" style="fill:#616161"/><g style="isolation:isolate"><path d="M121.8271,99.0879a.5108.5108,0,0,1,.2139-.418l1.0967-1.2988a.4474.4474,0,0,1,.3105-.1553.5193.5193,0,0,1,.3038.0957.301.301,0,0,1,.1376.2617v8.0118a.2953.2953,0,0,1-.1494.2617.6936.6936,0,0,1-.7031,0,.2953.2953,0,0,1-.1494-.2617V98.7178l-.4414.6562a.34.34,0,0,1-.25.1309.3358.3358,0,0,1-.2627-.125A.4361.4361,0,0,1,121.8271,99.0879Z" transform="translate(-29.8774 -13.8)" style="fill:#606060"/><path d="M124.9736,103.9512q0-.4761.501-.4766t.501.4053a1.0589,1.0589,0,0,0,.4414.9,1.8249,1.8249,0,0,0,1.12.3271,1.5555,1.5555,0,0,0,1.1621-.417,1.7148,1.7148,0,0,0,.4121-1.2519v-.2266a1.6578,1.6578,0,0,0-.4121-1.2217,1.5523,1.5523,0,0,0-1.15-.4111h-1.6924c-.31,0-.4648-.1309-.4648-.3926a.87.87,0,0,1,.0449-.2617l.2285-3.34c.0166-.2383.1036-.3575.2627-.3575h3.4336a.2635.2635,0,0,1,.2383.1377.6429.6429,0,0,1,0,.6319.2645.2645,0,0,1-.2383.1367h-2.8252l-.1787,2.61h1.1914a2.775,2.775,0,0,1,1.8662.5967,2.3311,2.3311,0,0,1,.6973,1.8711v.2266a2.48,2.48,0,0,1-.7031,1.9492,2.6922,2.6922,0,0,1-1.86.626,2.77,2.77,0,0,1-1.8838-.6016A1.8694,1.8694,0,0,1,124.9736,103.9512Z" transform="translate(-29.8774 -13.8)" style="fill:#606060"/><path d="M130.9346,103.5645v-.1426a2.1223,2.1223,0,0,1,1.3349-2.2237,1.7975,1.7975,0,0,1-1.0849-1.874q0-2.0961,2.3252-2.0967,2.313,0,2.3125,2.0967a1.8121,1.8121,0,0,1-1.0723,1.874,2.1362,2.1362,0,0,1,1.3232,2.2237v.1426a2.3032,2.3032,0,0,1-.6982,1.8544,3.2327,3.2327,0,0,1-3.7373,0A2.2956,2.2956,0,0,1,130.9346,103.5645Zm1.0019-.0889q0,1.7035,1.5733,1.7041a1.52,1.52,0,0,0,1.1562-.4268,1.7875,1.7875,0,0,0,.4053-1.2773v-.1924a1.6875,1.6875,0,0,0-.4111-1.248,1.5619,1.5619,0,0,0-1.15-.4082q-1.5734,0-1.5733,1.6562Zm.2256-4.0547a1.3472,1.3472,0,1,0,1.3477-1.3584A1.2016,1.2016,0,0,0,132.1621,99.4209Z" transform="translate(-29.8774 -13.8)" style="fill:#606060"/><path d="M139.4346,103.7246v-1.1914a2.344,2.344,0,0,1,.6015-1.6689,2.3075,2.3075,0,0,1,1.77-.6446,2.688,2.688,0,0,1,1.2461.2627q.5069.2622.5069.5606a.5312.5312,0,0,1-.125.3271.366.366,0,0,1-.292.1611,2.0887,2.0887,0,0,1-.4121-.2021,1.7146,1.7146,0,0,0-.8516-.2031,1.4777,1.4777,0,0,0-1.085.3672,1.404,1.404,0,0,0-.37,1.0429v1.1856q0,1.4106,1.4668,1.41a1.7341,1.7341,0,0,0,.87-.2089,1.8779,1.8779,0,0,1,.4288-.2081.3931.3931,0,0,1,.3164.1543.5108.5108,0,0,1,.125.3223c0,.1982-.1748.39-.5245.5723a2.7566,2.7566,0,0,1-1.2871.2744,2.1505,2.1505,0,0,1-2.3847-2.3135Z" transform="translate(-29.8774 -13.8)" style="fill:#606060"/><path d="M144.6084,105.585v-4.9473a.2938.2938,0,0,1,.1367-.251.6056.6056,0,0,1,.3526-.0947.5264.5264,0,0,1,.3212.0967.3.3,0,0,1,.1309.2539v.4951a1.764,1.764,0,0,1,1.5859-.918,1.5808,1.5808,0,0,1,.9834.3311,1.9972,1.9972,0,0,1,.65.873,2.19,2.19,0,0,1,.7862-.8965,1.8979,1.8979,0,0,1,1.0254-.3076,1.9341,1.9341,0,0,1,1.4365.62,2.2939,2.2939,0,0,1,.6025,1.669v3.0762a.3137.3137,0,0,1-.1494.2441.5674.5674,0,0,1-.3516.1133.55.55,0,0,1-.34-.1133.3107.3107,0,0,1-.1484-.2432v-3.0683a1.3726,1.3726,0,0,0-.376-1.0166,1.2,1.2,0,0,0-.876-.375,1.2335,1.2335,0,0,0-.8887.3808,1.3082,1.3082,0,0,0-.3867.9746v3.1163a.282.282,0,0,1-.1494.2558.6716.6716,0,0,1-.3516.0889.6486.6486,0,0,1-.34-.0889.282.282,0,0,1-.1494-.2558v-3.1036a1.3765,1.3765,0,0,0-.3633-.9814,1.1588,1.1588,0,0,0-.876-.3867,1.2238,1.2238,0,0,0-.8945.3808,1.3631,1.3631,0,0,0-.3818,1.0108v3.0683a.3132.3132,0,0,1-.1485.2432.6075.6075,0,0,1-.6982.0059A.31.31,0,0,1,144.6084,105.585Z" transform="translate(-29.8774 -13.8)" style="fill:#606060"/></g><g style="isolation:isolate"><path d="M80.1729,105.5967V97.585a.303.303,0,0,1,.1372-.2618.5408.5408,0,0,1,.3159-.0957h2.0508a3.1123,3.1123,0,0,1,1.77.4414,1.7934,1.7934,0,0,1,.65,1.5977,2.6347,2.6347,0,0,1-.2681,1.2451,1.5034,1.5034,0,0,1-.7451.71,1.8994,1.8994,0,0,1,.918.7031,2.3782,2.3782,0,0,1,.31,1.3232v.2149a2.4563,2.4563,0,0,1-.644,1.8838,2.4266,2.4266,0,0,1-1.7168.5957H80.626a.5052.5052,0,0,1-.3277-.1016A.3039.3039,0,0,1,80.1729,105.5967Zm1.0014-4.793h1.49a1.5151,1.5151,0,0,0,1.0849-.333,1.4206,1.4206,0,0,0,.3457-1.0615q0-1.2759-1.4663-1.2754H81.1743Zm0,4.2324h1.6094q1.5264,0,1.5264-1.6328V103.2a1.3491,1.3491,0,0,0-1.5264-1.5615H81.1743Z" transform="translate(-29.8774 -13.8)" style="fill:#606060"/></g><path d="M81.187,82.88V76.2822a.25.25,0,0,1,.1128-.2158.4482.4482,0,0,1,.26-.0781h1.6884a2.5633,2.5633,0,0,1,1.458.3633,1.4762,1.4762,0,0,1,.5352,1.3154,2.1764,2.1764,0,0,1-.2207,1.0264,1.2344,1.2344,0,0,1-.6138.5839,1.5644,1.5644,0,0,1,.7559.5791,1.9593,1.9593,0,0,1,.2554,1.09v.1767a2.0207,2.0207,0,0,1-.53,1.5508,1.9943,1.9943,0,0,1-1.4136.4912H81.56a.4147.4147,0,0,1-.27-.083A.2516.2516,0,0,1,81.187,82.88Zm.8247-3.9463h1.2271a1.2471,1.2471,0,0,0,.8935-.2754,1.1674,1.1674,0,0,0,.2847-.873q0-1.05-1.2075-1.0508H82.0117Zm0,3.4853h1.3252q1.2569,0,1.2569-1.3447v-.167a1.1108,1.1108,0,0,0-1.2569-1.2861H82.0117Z" transform="translate(-29.8774 -13.8)" style="fill:#606060"/><g style="isolation:isolate"><path d="M100.3643,103.415V99.8262a2.5061,2.5061,0,0,1,.7089-1.9668,2.6856,2.6856,0,0,1,1.8545-.6319,2.82,2.82,0,0,1,1.8711.59,1.859,1.859,0,0,1,.7041,1.4844.5969.5969,0,0,1-.12.4355.54.54,0,0,1-.3808.1133q-.4776,0-.501-.3457-.0718-1.3712-1.55-1.3711-1.5858,0-1.586,1.6924v3.5888q0,1.6933,1.6221,1.6924a1.9843,1.9843,0,0,0,.7744-.1308.939.939,0,0,0,.459-.3809,1.7928,1.7928,0,0,0,.1973-.43,3.6374,3.6374,0,0,0,.083-.4765c.0244-.23.19-.3457.501-.3457a.5218.5218,0,0,1,.3808.1191.619.619,0,0,1,.12.44,1.8991,1.8991,0,0,1-.71,1.5088,2.803,2.803,0,0,1-1.878.6016,2.6629,2.6629,0,0,1-1.8418-.6319A2.5034,2.5034,0,0,1,100.3643,103.415Z" transform="translate(-29.8774 -13.8)" style="fill:#606060"/></g><path d="M141.7236,81.834V78.8779a2.0637,2.0637,0,0,1,.584-1.6191,2.207,2.207,0,0,1,1.5274-.52,2.3234,2.3234,0,0,1,1.541.4853,1.5283,1.5283,0,0,1,.5791,1.2227.4947.4947,0,0,1-.0977.3584.4449.4449,0,0,1-.3144.0937q-.3927,0-.4121-.2851-.0587-1.1294-1.2764-1.1289-1.3067,0-1.3057,1.3935V81.834q0,1.393,1.335,1.3935a1.6557,1.6557,0,0,0,.6377-.1074.7729.7729,0,0,0,.3789-.3144,1.45,1.45,0,0,0,.1611-.3536,2.917,2.917,0,0,0,.0694-.3925c.0195-.19.1572-.2852.4121-.2852a.4319.4319,0,0,1,.3144.0986.5138.5138,0,0,1,.0977.3633,1.5631,1.5631,0,0,1-.584,1.2422,2.3116,2.3116,0,0,1-1.5459.4951,2.1931,2.1931,0,0,1-1.5176-.52A2.0637,2.0637,0,0,1,141.7236,81.834Z" transform="translate(-29.8774 -13.8)" style="fill:#606060"/><g style="isolation:isolate"><path d="M58.1016,105.0645a.3859.3859,0,0,1,.0239-.0957l2.44-7.9258q.1049-.3473.6075-.3477t.6079.3506L64.23,105a.153.153,0,0,0,.0059.0449.1476.1476,0,0,1,.0058.0332.3427.3427,0,0,1-.1968.28.7837.7837,0,0,1-.4233.123.33.33,0,0,1-.3574-.2255l-.5244-1.7657H59.5845l-.5225,1.76a.3328.3328,0,0,1-.3633.2314.7607.7607,0,0,1-.4038-.1191A.3461.3461,0,0,1,58.1016,105.0645Zm1.7309-2.4083h2.66L61.1665,98.165Z" transform="translate(-29.8774 -13.8)" style="fill:#606060"/></g><path d="M29.8774,44.9028a.3159.3159,0,0,1,.02-.0781l2.0092-6.5273q.0866-.2871.5005-.2871t.5005.289L34.9238,44.85a.1391.1391,0,0,0,.0049.0371.1159.1159,0,0,1,.0049.0274.2824.2824,0,0,1-.1621.23.6467.6467,0,0,1-.3486.1016.2716.2716,0,0,1-.2945-.1856l-.4316-1.4541H31.0986l-.4306,1.4493a.2739.2739,0,0,1-.2989.19.6151.6151,0,0,1-.3325-.0987A.2828.2828,0,0,1,29.8774,44.9028Zm1.4253-1.9834h2.191l-1.0923-3.6982Z" transform="translate(-29.8774 -13.8)" style="fill:#606060"/><path d="M107.5,62.8H58.6a6.0607,6.0607,0,0,1-6.1-6.1V32.2a6.0607,6.0607,0,0,1,6.1-6.1h48.9a6.0607,6.0607,0,0,1,6.1,6.1V56.7A5.999,5.999,0,0,1,107.5,62.8ZM58.6,27.5A4.5877,4.5877,0,0,0,54,32.1V56.6a4.5877,4.5877,0,0,0,4.6,4.6h48.9a4.5877,4.5877,0,0,0,4.6-4.6V32.2a4.5877,4.5877,0,0,0-4.6-4.6H58.6Z" transform="translate(-29.8774 -13.8)" style="fill:#d12d28"/><path d="M94,27.5a.6835.6835,0,0,1-.7-.7V21.4a2.6888,2.6888,0,0,0-2.7-2.7h-15a2.6888,2.6888,0,0,0-2.7,2.7v5.4a.7.7,0,1,1-1.4,0V21.4a4.2253,4.2253,0,0,1,4.2-4.2H90.6a4.2253,4.2253,0,0,1,4.2,4.2v5.4A.8485.8485,0,0,1,94,27.5Z" transform="translate(-29.8774 -13.8)" style="fill:#d12d28"/><path d="M98.4,59.9a.6835.6835,0,0,1-.7-.7V26.8a.7.7,0,1,1,1.4,0V59.2C99.2,59.6,98.9,59.9,98.4,59.9Z" transform="translate(-29.8774 -13.8)" style="fill:#d12d28"/><path d="M67.7,59.9a.6835.6835,0,0,1-.7-.7V26.8a.7.7,0,0,1,1.4,0V59.2C68.5,59.6,68.1,59.9,67.7,59.9Z" transform="translate(-29.8774 -13.8)" style="fill:#d12d28"/><path d="M104.6,59.9a.6835.6835,0,0,1-.7-.7V26.8a.7.7,0,0,1,1.4,0V59.2A.6835.6835,0,0,1,104.6,59.9Z" transform="translate(-29.8774 -13.8)" style="fill:#d12d28"/><path d="M61.6,59.9a.6835.6835,0,0,1-.7-.7V26.8a.7.7,0,1,1,1.4,0V59.2A.6835.6835,0,0,1,61.6,59.9Z" transform="translate(-29.8774 -13.8)" style="fill:#d12d28"/><path d="M112.9,77.5a.6835.6835,0,0,1-.7-.7V66a.7.7,0,0,1,1.4,0V76.8C113.7,77.2,113.3,77.5,112.9,77.5Z" transform="translate(-29.8774 -13.8)" style="fill:#515151"/><path d="M53.2,77.5a.6835.6835,0,0,1-.7-.7V66a.6835.6835,0,0,1,.7-.7.7728.7728,0,0,1,.8.7V76.8A.7133.7133,0,0,1,53.2,77.5Z" transform="translate(-29.8774 -13.8)" style="fill:#515151"/><path d="M106.4,74.5a1.0122,1.0122,0,0,1-.7-.4.7305.7305,0,0,1,.4-1l5.1-2.4-5.1-2.4a.7616.7616,0,1,1,.6-1.4l6.5,3.1a.67.67,0,0,1,.4.7,1.0122,1.0122,0,0,1-.4.7l-6.5,3.1Z" transform="translate(-29.8774 -13.8)" style="fill:#515151"/><path d="M59.8,74.5a.3674.3674,0,0,1-.3-.1L53,71.3a.67.67,0,0,1-.4-.7,1.0122,1.0122,0,0,1,.4-.7l6.5-3.1a.7616.7616,0,0,1,.6,1.4L55,70.7l5.1,2.4a.819.819,0,0,1,.4,1A.7549.7549,0,0,1,59.8,74.5Z" transform="translate(-29.8774 -13.8)" style="fill:#515151"/><path d="M112.9,71.5H53.2a.7.7,0,0,1,0-1.4h59.7a.7.7,0,1,1,0,1.4Z" transform="translate(-29.8774 -13.8)" style="fill:#515151"/><path d="M68.1,15.2H37.8a.7.7,0,0,1,0-1.4H68.1a.6835.6835,0,0,1,.7.7C68.9,14.8,68.6,15.2,68.1,15.2Z" transform="translate(-29.8774 -13.8)" style="fill:#515151"/><path d="M50.2,62.8H37.8a.7.7,0,0,1,0-1.4H50.1a.6835.6835,0,0,1,.7.7C50.8,62.5,50.6,62.8,50.2,62.8Z" transform="translate(-29.8774 -13.8)" style="fill:#515151"/><path d="M40.8,23.3a.3674.3674,0,0,1-.3-.1.819.819,0,0,1-.4-1l3.1-6.5a.67.67,0,0,1,.7-.4,1.0122,1.0122,0,0,1,.7.4l3.1,6.5a.7616.7616,0,1,1-1.4.6l-2.4-5.1-2.4,5.1A.752.752,0,0,1,40.8,23.3Z" transform="translate(-29.8774 -13.8)" style="fill:#515151"/><path d="M43.9,62.8h0a1.0122,1.0122,0,0,1-.7-.4l-3.1-6.5a.7616.7616,0,0,1,1.4-.6l2.4,5.1,2.4-5.1a.7616.7616,0,1,1,1.4.6l-3.1,6.5A.7549.7549,0,0,1,43.9,62.8Z" transform="translate(-29.8774 -13.8)" style="fill:#515151"/><path d="M43.9,62.8a.6835.6835,0,0,1-.7-.7V18a.7.7,0,1,1,1.4,0V62.1A.6835.6835,0,0,1,43.9,62.8Z" transform="translate(-29.8774 -13.8)" style="fill:#515151"/><path d="M151.6,61.9H136.1a3.3293,3.3293,0,0,1-3.3-3.3V29.1a3.3293,3.3293,0,0,1,3.3-3.3h15.5a3.3293,3.3293,0,0,1,3.3,3.3V58.6A3.3972,3.3972,0,0,1,151.6,61.9ZM136.1,27.3a1.7925,1.7925,0,0,0-1.8,1.8V58.6a1.7925,1.7925,0,0,0,1.8,1.8h15.5a1.7925,1.7925,0,0,0,1.8-1.8V29.1a1.7925,1.7925,0,0,0-1.8-1.8Z" transform="translate(-29.8774 -13.8)" style="fill:#d12d28"/><path d="M154.1,77.5a.6835.6835,0,0,1-.7-.7V64.9a.7.7,0,1,1,1.4,0V76.8A.6835.6835,0,0,1,154.1,77.5Z" transform="translate(-29.8774 -13.8)" style="fill:#515151"/><path d="M133.6,77.5a.6835.6835,0,0,1-.7-.7V64.9a.7.7,0,1,1,1.4,0V76.8A.6835.6835,0,0,1,133.6,77.5Z" transform="translate(-29.8774 -13.8)" style="fill:#515151"/><path d="M147.7,74.6a1.0122,1.0122,0,0,1-.7-.4.7305.7305,0,0,1,.4-1l5-2.3-5-2.3a.7616.7616,0,1,1,.6-1.4l6.4,3a.67.67,0,0,1,.4.7,1.0122,1.0122,0,0,1-.4.7l-6.4,3Z" transform="translate(-29.8774 -13.8)" style="fill:#515151"/><path d="M140,74.6a.3674.3674,0,0,1-.3-.1l-6.4-3a.67.67,0,0,1-.4-.7,1.0122,1.0122,0,0,1,.4-.7l6.4-3a.7616.7616,0,1,1,.6,1.4l-5,2.3,5,2.3a.819.819,0,0,1,.4,1A.752.752,0,0,1,140,74.6Z" transform="translate(-29.8774 -13.8)" style="fill:#515151"/><path d="M154.1,71.6H133.6a.7.7,0,0,1,0-1.4h20.5a.7.7,0,0,1,0,1.4Z" transform="translate(-29.8774 -13.8)" style="fill:#515151"/><path d="M146.6,24.3a.6835.6835,0,0,1-.7-.7V18.7h-4v4.9a.7.7,0,1,1-1.4,0V18a.6835.6835,0,0,1,.7-.7h5.5a.6835.6835,0,0,1,.7.7v5.6A.8485.8485,0,0,1,146.6,24.3Z" transform="translate(-29.8774 -13.8)" style="fill:#d12d28"/><path d="M143.8,58.9a.6835.6835,0,0,1-.7-.7V29.5a.7.7,0,0,1,1.4,0V58.2C144.6,58.6,144.2,58.9,143.8,58.9Z" transform="translate(-29.8774 -13.8)" style="fill:#d12d28"/></svg>